<svg width="73" height="72" viewBox="0 0 73 72" fill="none" xmlns="http://www.w3.org/2000/svg">
<path d="M56.8795 24.6579L59.2992 44.0372C60.0753 50.2524 55.0117 55.6431 48.7601 55.2572L22.1467 53.6143C16.6316 53.2738 12.4379 48.5249 12.7823 43.01L13.7485 27.5375C14.0545 22.6373 17.8725 18.6841 22.759 18.2079L45.9865 15.9441C51.3784 15.4186 56.2082 19.2822 56.8795 24.6579Z" fill="white" stroke="#D24648"/>
<path d="M46.6072 41.2C46.6072 42.1 46.3538 42.95 45.8979 43.67C45.0569 45.06 43.5168 46 41.7437 46C39.9706 46 38.4204 45.06 37.5895 43.67C37.1437 42.95 36.8803 42.1 36.8803 41.2C36.8803 38.55 39.0587 36.4 41.7437 36.4C44.4287 36.4 46.6072 38.55 46.6072 41.2Z" stroke="#D24648" stroke-width="1.5" stroke-miterlimit="10" stroke-linecap="round" stroke-linejoin="round"/>
<path d="M39.849 41.2L41.0446 42.38L43.6384 40.02" stroke="#D24648" stroke-width="1.5" stroke-linecap="round" stroke-linejoin="round"/>
<path opacity="0.4" d="M46.6072 32.69C46.6072 34.66 46.0904 36.4 45.2798 37.91C44.3882 36.98 43.1318 36.4 41.7437 36.4C39.0587 36.4 36.8803 38.55 36.8803 41.2C36.8803 42.43 37.3565 43.55 38.1265 44.4C37.7516 44.57 37.4071 44.71 37.1032 44.81C36.7587 44.93 36.1913 44.93 35.8468 44.81C32.9085 43.82 26.3428 39.69 26.3428 32.69C26.3428 29.6 28.8657 27.1 31.9763 27.1C33.8102 27.1 35.4516 27.98 36.475 29.33C37.4983 27.98 39.1397 27.1 40.9737 27.1C44.0842 27.1 46.6072 29.6 46.6072 32.69Z" stroke="#D24648" stroke-width="1.5" stroke-linecap="round" stroke-linejoin="round"/>
</svg>
