<svg width="76" height="72" viewBox="0 0 76 72" fill="none" xmlns="http://www.w3.org/2000/svg">
<path d="M58.9486 24.5765L61.4646 44.0157C62.2697 50.2368 57.2146 55.6545 50.9528 55.2816L22.6385 53.5953C17.1054 53.2658 12.8959 48.4985 13.2539 42.9671L14.2521 27.546C14.5695 22.6423 18.4027 18.6959 23.2951 18.2358L48.0952 15.904C53.4584 15.3997 58.2572 19.2343 58.9486 24.5765Z" fill="white" stroke="#D24648"/>
<path d="M37.8098 46C43.61 46 48.3121 41.5228 48.3121 36C48.3121 30.4772 43.61 26 37.8098 26C32.0095 26 27.3075 30.4772 27.3075 36C27.3075 41.5228 32.0095 46 37.8098 46Z" stroke="#D24648" stroke-width="1.5" stroke-linecap="round" stroke-linejoin="round"/>
<g opacity="0.4">
<path d="M33.6084 27H34.6587C32.6107 32.84 32.6107 39.16 34.6587 45H33.6084" stroke="#D24648" stroke-width="1.5" stroke-linecap="round" stroke-linejoin="round"/>
<path d="M40.9605 27C43.0084 32.84 43.0084 39.16 40.9605 45" stroke="#D24648" stroke-width="1.5" stroke-linecap="round" stroke-linejoin="round"/>
<path d="M28.3577 40V39C34.4911 40.95 41.1285 40.95 47.2618 39V40" stroke="#D24648" stroke-width="1.5" stroke-linecap="round" stroke-linejoin="round"/>
<path d="M28.3577 33.0001C34.4911 31.0501 41.1285 31.0501 47.2618 33.0001" stroke="#D24648" stroke-width="1.5" stroke-linecap="round" stroke-linejoin="round"/>
</g>
</svg>
