<svg width="87" height="72" viewBox="0 0 87 72" fill="none" xmlns="http://www.w3.org/2000/svg">
<path d="M67.1918 24.2761L70.0911 43.9163C71.0135 50.1645 65.9843 55.6924 59.6769 55.3631L24.5788 53.5305C18.9793 53.2381 14.7145 48.3997 15.1273 42.8078L16.2529 27.5617C16.6154 22.6519 20.4977 18.7363 25.4042 18.3318L56.4774 15.7703C61.7329 15.3371 66.4216 19.0594 67.1918 24.2761Z" fill="white" stroke="#D24648"/>
<path d="M39.7229 34.87C39.6031 34.86 39.4594 34.86 39.3276 34.87C36.4766 34.79 34.2125 32.84 34.2125 30.44C34.2125 27.99 36.5844 26 39.5312 26C42.4661 26 44.85 27.99 44.85 30.44C44.838 32.84 42.574 34.79 39.7229 34.87Z" stroke="#D24648" stroke-width="1.5" stroke-linecap="round" stroke-linejoin="round"/>
<path opacity="0.4" d="M48.4078 28C50.7318 28 52.6005 29.57 52.6005 31.5C52.6005 33.39 50.8037 34.93 48.5635 35C48.4677 34.99 48.3599 34.99 48.2521 35" stroke="#D24648" stroke-width="1.5" stroke-linecap="round" stroke-linejoin="round"/>
<path d="M33.7333 38.56C30.8344 40.18 30.8344 42.82 33.7333 44.43C37.0276 46.27 42.4302 46.27 45.7245 44.43C48.6234 42.81 48.6234 40.17 45.7245 38.56C42.4422 36.73 37.0396 36.73 33.7333 38.56Z" stroke="#D24648" stroke-width="1.5" stroke-linecap="round" stroke-linejoin="round"/>
<path opacity="0.4" d="M50.7198 44C51.5823 43.85 52.3969 43.56 53.0677 43.13C54.9365 41.96 54.9365 40.03 53.0677 38.86C52.4088 38.44 51.6062 38.16 50.7557 38" stroke="#D24648" stroke-width="1.5" stroke-linecap="round" stroke-linejoin="round"/>
</svg>
